<svg xmlns="http://www.w3.org/2000/svg" xmlns:xlink="http://www.w3.org/1999/xlink" width="1080" zoomAndPan="magnify" viewBox="0 0 810 809.999993" height="1080" preserveAspectRatio="xMidYMid meet" version="1.2"><defs/><g id="c5620ac6da"><g style="fill:#000000;fill-opacity:1;"><g transform="translate(128.551329, 475.501506)"><path style="stroke:none" d="M 50.71875 0 L 21.171875 0 L 21.171875 -162.953125 L 63.3125 -162.953125 L 104.546875 -43.140625 L 106.890625 -43.140625 L 147.90625 -162.953125 L 189.03125 -162.953125 L 189.03125 0 L 158.5 0 L 158.5 -107.671875 L 155.703125 -108.109375 L 118.03125 0 L 91.171875 0 L 53.5 -108.109375 L 50.71875 -107.671875 Z M 50.71875 0 "/></g><g transform="translate(338.874133, 475.501506)"><path style="stroke:none" d="M 50.71875 0 L 21.171875 0 L 21.171875 -162.953125 L 63.3125 -162.953125 L 104.546875 -43.140625 L 106.890625 -43.140625 L 147.90625 -162.953125 L 189.03125 -162.953125 L 189.03125 0 L 158.5 0 L 158.5 -107.671875 L 155.703125 -108.109375 L 118.03125 0 L 91.171875 0 L 53.5 -108.109375 L 50.71875 -107.671875 Z M 50.71875 0 "/></g><g transform="translate(549.196938, 475.501506)"><path style="stroke:none" d="M 126.390625 -101.65625 L 126.390625 -162.953125 L 158.5 -162.953125 L 158.5 0 L 126.390625 0 L 126.390625 -74.234375 L 53.390625 -74.234375 L 53.390625 0 L 21.171875 0 L 21.171875 -162.953125 L 53.390625 -162.953125 L 53.390625 -101.65625 Z M 126.390625 -101.65625 "/></g></g></g></svg>